<svg xmlns="http://www.w3.org/2000/svg" xmlns:xlink="http://www.w3.org/1999/xlink" width="1080" zoomAndPan="magnify" viewBox="0 0 810 809.999993" height="1080" preserveAspectRatio="xMidYMid meet" version="1.0"><defs><g/><clipPath id="24e2c74fa1"><path d="M 283.5 283.5 L 526.5 283.5 L 526.5 526.5 L 283.5 526.5 Z M 283.5 283.5 " clip-rule="nonzero"/></clipPath><clipPath id="72bec63d77"><path d="M 405 283.5 C 337.898438 283.5 283.5 337.898438 283.5 405 C 283.5 472.101562 337.898438 526.5 405 526.5 C 472.101562 526.5 526.5 472.101562 526.5 405 C 526.5 337.898438 472.101562 283.5 405 283.5 Z M 405 283.5 " clip-rule="nonzero"/></clipPath></defs><g clip-path="url(#24e2c74fa1)"><g clip-path="url(#72bec63d77)"><path fill="#ff3131" d="M 283.5 283.5 L 526.5 283.5 L 526.5 526.5 L 283.5 526.5 Z M 283.5 283.5 " fill-opacity="1" fill-rule="nonzero"/></g></g><g fill="#000000" fill-opacity="1"><g transform="translate(347.097642, 468.374996)"><g><path d="M 62.796875 -41.800781 C 66 -45.398438 69.199219 -49.199219 72.398438 -52.796875 C 81.199219 -63.199219 90.796875 -72.796875 98.398438 -83.796875 C 108.996094 -98.796875 108.398438 -114.597656 98.199219 -128.398438 C 87.796875 -142.996094 73.597656 -149.996094 56 -144.996094 C 45.398438 -142.195312 35.199219 -136.996094 25.398438 -131.996094 C 19.800781 -129.195312 15.601562 -123.996094 18.199219 -116.796875 C 20.597656 -109.597656 27.199219 -108.199219 33.800781 -108.996094 C 40.398438 -109.796875 46.800781 -111.796875 53.398438 -112.398438 C 57.796875 -112.597656 62.199219 -110.996094 66.796875 -110.398438 C 65.199219 -106.398438 64.796875 -101.597656 62.199219 -98.597656 C 50.796875 -84.796875 38.800781 -71.796875 27.398438 -58.199219 C 21.199219 -50.796875 15.199219 -43.199219 10.398438 -35 C 3.199219 -22.199219 8.800781 -8.601562 22.800781 -4.398438 C 45.800781 2.398438 69.597656 0 93.199219 -2 C 102.597656 -2.800781 108.398438 -12.199219 108.199219 -21.800781 C 107.996094 -31.199219 101.597656 -39 91.796875 -40.597656 C 86.398438 -41.398438 80.796875 -40.597656 75.199219 -40.398438 C 71.398438 -40.199219 67.597656 -40 63.796875 -39.800781 C 63.597656 -40.398438 63.199219 -41.199219 62.796875 -41.800781 Z M 62.796875 -41.800781 "/></g></g></g></svg>