<svg xmlns="http://www.w3.org/2000/svg" xmlns:xlink="http://www.w3.org/1999/xlink" width="1080" zoomAndPan="magnify" viewBox="0 0 810 809.999993" height="1080" preserveAspectRatio="xMidYMid meet" version="1.0"><defs><g/><clipPath id="435b68aa42"><path d="M 283.5 283.5 L 526.5 283.5 L 526.5 526.5 L 283.5 526.5 Z M 283.5 283.5 " clip-rule="nonzero"/></clipPath><clipPath id="8e134d821e"><path d="M 405 283.5 C 337.898438 283.5 283.5 337.898438 283.5 405 C 283.5 472.101562 337.898438 526.5 405 526.5 C 472.101562 526.5 526.5 472.101562 526.5 405 C 526.5 337.898438 472.101562 283.5 405 283.5 Z M 405 283.5 " clip-rule="nonzero"/></clipPath></defs><g clip-path="url(#435b68aa42)"><g clip-path="url(#8e134d821e)"><path fill="#ff3131" d="M 283.5 283.5 L 526.5 283.5 L 526.5 526.5 L 283.5 526.5 Z M 283.5 283.5 " fill-opacity="1" fill-rule="nonzero"/></g></g><g fill="#000000" fill-opacity="1"><g transform="translate(374.589828, 468.374996)"><g><path d="M 53.199219 -114.796875 C 53.199219 -120.398438 52.398438 -125.996094 50.597656 -131.195312 C 48.597656 -137.398438 43.597656 -142.394531 37.199219 -141.597656 C 32 -140.796875 26.199219 -137.398438 22.800781 -133.398438 C 19.398438 -129.398438 18 -123.398438 16.597656 -117.996094 C 9.199219 -88.996094 7.800781 -59.398438 7.398438 -29.597656 C 7.199219 -21.199219 11 -14.199219 17.199219 -8.601562 C 23.800781 -2 30.398438 -2 37.597656 -8 C 46 -15 49.796875 -24 50 -34.597656 C 50.199219 -48.796875 53.597656 -102.398438 53.199219 -114.796875 Z M 53.199219 -114.796875 "/></g></g></g></svg>