<svg xmlns="http://www.w3.org/2000/svg" xmlns:xlink="http://www.w3.org/1999/xlink" width="1080" zoomAndPan="magnify" viewBox="0 0 810 809.999993" height="1080" preserveAspectRatio="xMidYMid meet" version="1.0"><defs><g/><clipPath id="2c96b316c9"><path d="M 283.5 283.5 L 526.5 283.5 L 526.5 526.5 L 283.5 526.5 Z M 283.5 283.5 " clip-rule="nonzero"/></clipPath><clipPath id="43b231d099"><path d="M 405 283.5 C 337.898438 283.5 283.5 337.898438 283.5 405 C 283.5 472.101562 337.898438 526.5 405 526.5 C 472.101562 526.5 526.5 472.101562 526.5 405 C 526.5 337.898438 472.101562 283.5 405 283.5 Z M 405 283.5 " clip-rule="nonzero"/></clipPath></defs><g clip-path="url(#2c96b316c9)"><g clip-path="url(#43b231d099)"><path fill="#ff8133" d="M 283.5 283.5 L 526.5 283.5 L 526.5 526.5 L 283.5 526.5 Z M 283.5 283.5 " fill-opacity="1" fill-rule="nonzero"/></g></g><g fill="#000000" fill-opacity="1"><g transform="translate(346.992174, 468.374996)"><g><path d="M 49.796875 -42.800781 C 40.597656 -43 31.199219 -43.597656 22 -42.800781 C 10.601562 -41.597656 5.199219 -32.398438 8.199219 -21.398438 C 11 -10.601562 18.597656 -5 29.199219 -3.398438 C 37.398438 -2.199219 45.597656 -1.398438 53.796875 -1.398438 C 79.199219 -1.398438 100.996094 -18.800781 107.199219 -43.597656 C 110.195312 -56 107.398438 -67 98.199219 -75.597656 C 93.199219 -80.398438 93.398438 -83.199219 96.597656 -88.796875 C 107.996094 -107.597656 101.597656 -133.796875 82.597656 -140.597656 C 61.398438 -148.195312 40 -144.996094 20.800781 -132.796875 C 14.398438 -128.796875 10.800781 -121.796875 11.601562 -113.597656 C 12.199219 -106.597656 18 -103.199219 23.199219 -107.199219 C 34.398438 -115.996094 47.597656 -117.195312 60.796875 -117.398438 C 64.398438 -117.597656 67.796875 -115.195312 71.199219 -113.996094 C 69.796875 -109.996094 69.597656 -104.597656 66.796875 -102.199219 C 60.597656 -97.199219 53.398438 -93.597656 46.398438 -89.796875 C 36.800781 -84.597656 32.398438 -77.597656 34 -69 C 35.597656 -60.398438 42.199219 -55.398438 53.398438 -54.199219 C 57.796875 -53.796875 62.199219 -53.796875 68.398438 -53.398438 C 63.796875 -44.199219 57.398438 -42.597656 49.796875 -42.800781 Z M 49.796875 -42.800781 "/></g></g></g></svg>